<svg width="20" height="20" viewBox="0 0 20 20" fill="none" xmlns="http://www.w3.org/2000/svg">
<path fill-rule="evenodd" clip-rule="evenodd" d="M1.0763 12.2538L11.8436 1.07837C13.2289 -0.359458 15.4758 -0.359458 16.8612 1.07837L18.2993 2.57105C19.6846 4.00889 19.6846 6.341 18.2993 7.77883L7.48956 18.9984C6.87145 19.6399 6.03341 19.9999 5.15868 19.9999H0.731712C0.320461 19.9999 -0.0100169 19.6482 0.00023211 19.2215L0.111591 14.5852C0.13373 13.709 0.479189 12.8736 1.0763 12.2538ZM17.2645 3.64508L15.8264 2.1524C15.0125 1.30773 13.6922 1.30773 12.8784 2.1524L12.0425 3.01998L16.4291 7.57192L17.2645 6.70483C18.0784 5.86016 18.0784 4.48975 17.2645 3.64508ZM2.11109 13.3278L11.0077 4.094L15.3943 8.64594L6.45478 17.9243L6.33587 18.0374C6.00745 18.3229 5.59136 18.481 5.15869 18.481L1.48162 18.4805L1.57453 14.6241C1.58682 14.1375 1.77918 13.6723 2.11109 13.3278Z" fill="white"/>
<path d="M20 19.2406C20 18.8211 19.6724 18.4811 19.2683 18.4811H11.6344L11.5352 18.488C11.178 18.5383 10.9027 18.8561 10.9027 19.2406C10.9027 19.66 11.2303 20 11.6344 20H19.2683L19.3676 19.9931C19.7247 19.9428 20 19.625 20 19.2406Z" fill="white"/>
</svg>
