<svg width="25" height="25" viewBox="0 0 25 25" fill="none" xmlns="http://www.w3.org/2000/svg">
<path fill-rule="evenodd" clip-rule="evenodd" d="M1.34537 15.3173L14.8045 1.34797C16.5361 -0.449323 19.3448 -0.449323 21.0764 1.34797L22.8741 3.21382C24.6058 5.01111 24.6058 7.92625 22.8741 9.72354L9.36195 23.7479C8.58931 24.5499 7.54176 24.9999 6.44835 24.9999H0.91464C0.400576 24.9999 -0.0125212 24.5603 0.000290137 24.0269L0.139488 18.2316C0.167163 17.1362 0.598986 16.092 1.34537 15.3173ZM21.5807 4.55635L19.783 2.6905C18.7657 1.63467 17.1152 1.63467 16.098 2.6905L15.0531 3.77497L20.5364 9.4649L21.5807 8.38103C22.5979 7.3252 22.5979 5.61219 21.5807 4.55635ZM2.63886 16.6598L13.7596 5.11749L19.2429 10.8074L8.06847 22.4054L7.91984 22.5467C7.50931 22.9037 6.9892 23.1013 6.44836 23.1013L1.85202 23.1006L1.96816 18.2801C1.98353 17.6719 2.22398 17.0904 2.63886 16.6598Z" fill="white"/>
<path d="M25 24.0507C25 23.5264 24.5905 23.1014 24.0854 23.1014H14.543L14.4189 23.1101C13.9725 23.1729 13.6284 23.5701 13.6284 24.0507C13.6284 24.575 14.0379 25 14.543 25H24.0854L24.2095 24.9913C24.6559 24.9285 25 24.5313 25 24.0507Z" fill="white"/>
</svg>
