<svg width="26" height="26" viewBox="0 0 26 26" fill="none" xmlns="http://www.w3.org/2000/svg">
<path fill-rule="evenodd" clip-rule="evenodd" d="M13.7736 3.72757L16.2826 8.77482C16.4082 9.0294 16.6509 9.20707 16.9326 9.24823L22.5496 10.0596C22.7771 10.09 22.9819 10.2091 23.1216 10.3911C23.3838 10.7324 23.3437 11.2156 23.0296 11.5091L18.9584 15.446C18.7515 15.641 18.6594 15.927 18.7136 16.2054L19.6886 21.7607C19.7568 22.2212 19.4426 22.6523 18.9822 22.7271C18.7916 22.7563 18.5966 22.726 18.4232 22.6404L13.4204 20.0176C13.1691 19.8811 12.8679 19.8811 12.6166 20.0176L7.57689 22.6545C7.15547 22.869 6.63981 22.7097 6.41014 22.297C6.32239 22.1302 6.29206 21.9406 6.32239 21.7553L7.29739 16.2C7.34614 15.9226 7.25406 15.6377 7.05256 15.4416L2.95972 11.5059C2.62606 11.1744 2.62389 10.6349 2.95647 10.3012C2.95756 10.3001 2.95864 10.298 2.95972 10.2969C3.09731 10.1723 3.26631 10.0889 3.44939 10.0564L9.06756 9.24498C9.34814 9.20057 9.58972 9.02507 9.71756 8.77048L12.2244 3.72757C12.3251 3.52282 12.5039 3.36573 12.7206 3.29423C12.9383 3.22165 13.1766 3.23898 13.3814 3.3419C13.5493 3.42532 13.6869 3.56073 13.7736 3.72757Z" stroke="#200E32" stroke-width="1.5" stroke-linecap="round" stroke-linejoin="round"/>
</svg>
